<?xml version="1.0" encoding="utf-8"?>
<!-- Generator: Adobe Illustrator 25.2.1, SVG Export Plug-In . SVG Version: 6.00 Build 0)  -->
<svg version="1.1" id="Calque_1" xmlns="http://www.w3.org/2000/svg" xmlns:xlink="http://www.w3.org/1999/xlink" x="0px" y="0px"
	 viewBox="0 0 120 120" style="enable-background:new 0 0 120 120;" xml:space="preserve">
<style type="text/css">
	.st0{fill:#65140E;}
	.st1{fill:#FFFFFF;}
	.st2{fill:#660000;}
</style>
<circle id="Ellipse_10" class="st2" cx="60" cy="60" r="60"/>
<g id="Groupe_30" transform="translate(149.248 -69.792)">
	<path id="Tracé_46" class="st1" d="M-89,110.8c-10.6-0.1-19.3,8.3-19.4,18.9c0,0.1,0,0.1,0,0.2c0,10.5,8.5,19.1,19.1,19.1
		c10.6,0,19.1-8.5,19.2-19.1C-70.2,119.5-78.5,111-89,110.8z M-89.3,143.5c-7.5,0-13.6-6.1-13.6-13.6c0,0,0,0,0-0.1
		c0-7.5,6.1-13.6,13.6-13.7c0.1,0,0.1,0,0.2,0c7.5,0.1,13.5,6.2,13.5,13.7C-75.6,137.4-81.7,143.5-89.3,143.5
		C-89.2,143.5-89.2,143.5-89.3,143.5L-89.3,143.5z"/>
	<path id="Tracé_47" class="st1" d="M-67.4,105.3c-1.5,0-2.7,1.2-2.7,2.7c0,1.5,1.2,2.7,2.7,2.7c0,0,0,0,0,0c1.5,0,2.7-1.2,2.7-2.7
		C-64.7,106.6-65.9,105.3-67.4,105.3z"/>
	<path id="Tracé_48" class="st1" d="M-53.8,129.9L-53.8,129.9c0-4.9,0-9.8,0-14.8c0-1.4-0.1-2.8-0.4-4.2c-1-4.8-3.7-9.2-7.6-12.2
		c-3.5-2.8-7.8-4.3-12.2-4.3c-10-0.1-20,0-30,0c-2.9,0-5.7,0.6-8.3,1.7c-7.5,3.3-12.4,10.7-12.4,18.9c0,9.9,0,19.8,0,29.7
		c0,1.1,0.1,2.1,0.2,3.2c0.8,5.1,3.4,9.8,7.5,13c3.5,2.9,8,4.5,12.6,4.5c10.1,0,20.2,0,30.3,0c1.6,0,3.3-0.2,4.9-0.7
		c3.2-0.8,6.2-2.4,8.7-4.7c4.3-3.8,6.7-9.2,6.8-15C-53.7,140-53.8,134.9-53.8,129.9z M-59.2,144.7c0.1,5.2-2.5,10-6.9,12.8
		c-2.1,1.4-4.6,2.3-7.1,2.4c-0.5,0-1,0-1.5,0c-9.8,0-19.6,0-29.4,0c-6.6,0-12.5-4.3-14.4-10.6c-0.5-1.4-0.7-2.9-0.7-4.4
		c0-10,0-20,0-30.1c0-6.5,4.2-12.3,10.4-14.3c1.6-0.5,3.2-0.8,4.9-0.7c4.9,0,9.8,0,14.7,0l0,0c5,0,10,0,15.1,0
		c7.1,0.1,13.2,5.1,14.6,12c0.2,1.1,0.3,2.1,0.3,3.2C-59.2,124.9-59.2,134.8-59.2,144.7z"/>
</g>
</svg>
