<?xml version="1.0" encoding="utf-8"?>
<!-- Generator: Adobe Illustrator 25.2.1, SVG Export Plug-In . SVG Version: 6.00 Build 0)  -->
<svg version="1.1" id="Calque_1" xmlns="http://www.w3.org/2000/svg" xmlns:xlink="http://www.w3.org/1999/xlink" x="0px" y="0px"
	 viewBox="0 0 120 120" style="enable-background:new 0 0 120 120;" xml:space="preserve">
<style type="text/css">
	.st0{fill:#65140E;}
	.st1{fill:#FFFFFF;}
	.st2{fill:#660000;}
</style>
<circle id="Ellipse_9" class="st0" cx="60.1" cy="60.1" r="60"/>
<g id="Groupe_29" transform="translate(253.092 -44.158)">
	<path id="Tracé_45" class="st1" d="M-188.1,139.9v-32.8h14.3V92.6h-14.4c0-0.5,0-0.8,0-1.2c0-1.7-0.1-3.5,0.1-5.2
		c0-1.8,1.5-3.2,3.2-3.2c0.1,0,0.2,0,0.3,0h10.8V68.7c-4.3,0-8.5,0-12.7,0c-0.9,0-1.8,0.2-2.7,0.5c-6.4,2-10,6.7-11.8,12.9
		c-0.6,2.3-0.8,4.7-0.7,7.1c0,1.1,0,2.3,0,3.5h-10.5c0,0.2-0.1,0.4-0.1,0.6c0,4.4,0,8.7,0,13.1c0,0.6,0.2,0.7,0.7,0.7
		c2.5,0,5,0,7.5,0h2.3v32.7H-188.1z"/>
</g>
</svg>
