<?xml version="1.0" encoding="utf-8"?>
<!-- Generator: Adobe Illustrator 25.2.1, SVG Export Plug-In . SVG Version: 6.00 Build 0)  -->
<svg version="1.1" id="Calque_1" xmlns="http://www.w3.org/2000/svg" xmlns:xlink="http://www.w3.org/1999/xlink" x="0px" y="0px"
	 viewBox="0 0 120 120" style="enable-background:new 0 0 120 120;" xml:space="preserve">
<style type="text/css">
	.st0{fill:#65140E;}
	.st1{fill:#FFFFFF;}
	.st2{fill:#660000;}
</style>
<circle id="Ellipse_11" class="st2" cx="60" cy="60" r="60"/>
<path id="Tracé_49" class="st1" d="M92.8,41.7c-1.1,1-2.2,2-3.3,2.9c-0.3,0.2-0.5,0.6-0.5,1c0.3,9.4-2.6,18.7-8.1,26.4
	c-6.1,9-15.7,15.2-26.5,17c-7.7,1.5-15.7,0.8-23-1.9c-2.8-1-5.4-2.3-7.9-4c7.8,0.8,15.6-1.5,21.9-6.3c-6.9-0.6-11.4-4-14-10.4
	c2.2,0.4,4.5,0.3,6.7-0.3c-4.2-0.9-7.8-3.6-9.9-7.3c-1.4-2.3-2-4.9-1.9-7.6c2.1,1.1,4.4,1.7,6.7,1.8c-3.2-2.1-5.4-5.4-6.2-9.1
	c-0.9-3.7-0.3-7.6,1.6-10.8c7.6,9.3,18.8,15,30.8,15.7c-0.1-1.5-0.2-3-0.2-4.4c0.3-5.8,4-10.9,9.5-13c5.5-2.2,11.8-0.9,16,3.3
	c0.3,0.3,0.6,0.4,1,0.3c2.9-0.6,5.6-1.7,8.2-3.1c0.2-0.1,0.4-0.2,0.8-0.4c-1.1,3.3-3.3,6.2-6.2,8.1c2.8-0.3,5.5-1,8-2.1l0.2,0.2
	C95.2,39,94.1,40.4,92.8,41.7z"/>
</svg>
